<svg xmlns="http://www.w3.org/2000/svg" xmlns:xlink="http://www.w3.org/1999/xlink" width="500" zoomAndPan="magnify" viewBox="0 0 375 374.999991" height="500" preserveAspectRatio="xMidYMid meet" version="1.0"><defs><g/><clipPath id="df342150c7"><path d="M 49.460938 130.828125 L 325.242188 130.828125 L 325.242188 288.433594 L 49.460938 288.433594 Z M 49.460938 130.828125 " clip-rule="nonzero"/></clipPath><clipPath id="ab186bb4c3"><path d="M 151 46.183594 L 223 46.183594 L 223 118 L 151 118 Z M 151 46.183594 " clip-rule="nonzero"/></clipPath></defs><g clip-path="url(#df342150c7)"><path fill="#000000" d="M 137.886719 173.929688 C 137.804688 174.921875 137.765625 175.925781 137.765625 176.9375 L 137.765625 243.523438 C 137.765625 251.398438 144.167969 257.804688 152.039062 257.804688 C 159.910156 257.804688 166.316406 251.398438 166.316406 243.523438 L 166.316406 204.238281 C 166.316406 188.140625 153.730469 174.925781 137.886719 173.929688 Z M 236.820312 173.929688 C 220.976562 174.925781 208.390625 188.140625 208.390625 204.238281 L 208.390625 243.523438 C 208.390625 251.398438 214.796875 257.804688 222.667969 257.804688 C 230.539062 257.804688 236.941406 251.398438 236.941406 243.523438 L 236.941406 176.9375 C 236.941406 175.925781 236.902344 174.921875 236.820312 173.929688 Z M 320.722656 288.433594 C 318.222656 288.433594 316.199219 286.410156 316.199219 283.914062 L 316.199219 204.238281 C 316.199219 187.492188 302.582031 173.867188 285.839844 173.867188 L 245.886719 173.867188 C 245.953125 174.886719 245.988281 175.910156 245.988281 176.9375 L 245.988281 243.523438 C 245.988281 256.386719 235.523438 266.851562 222.667969 266.851562 C 209.808594 266.851562 199.347656 256.386719 199.347656 243.523438 L 199.347656 204.238281 C 199.347656 193.707031 203.445312 183.808594 210.886719 176.367188 C 217.433594 169.820312 225.871094 165.859375 234.96875 165 C 229.992188 150.425781 216.164062 139.917969 199.929688 139.917969 L 174.777344 139.917969 C 158.542969 139.917969 144.714844 150.425781 139.738281 165 C 148.835938 165.859375 157.273438 169.820312 163.820312 176.367188 C 171.261719 183.808594 175.359375 193.707031 175.359375 204.238281 L 175.359375 243.523438 C 175.359375 256.386719 164.898438 266.851562 152.039062 266.851562 C 139.179688 266.851562 128.71875 256.386719 128.71875 243.523438 L 128.71875 176.9375 C 128.71875 175.910156 128.753906 174.886719 128.820312 173.867188 L 88.867188 173.867188 C 72.125 173.867188 58.507812 187.492188 58.507812 204.238281 L 58.507812 283.914062 C 58.507812 286.410156 56.484375 288.433594 53.984375 288.433594 C 51.488281 288.433594 49.460938 286.410156 49.460938 283.914062 L 49.460938 204.238281 C 49.460938 193.707031 53.5625 183.808594 61.003906 176.367188 C 68.445312 168.921875 78.339844 164.820312 88.867188 164.820312 L 130.320312 164.820312 C 132.398438 157.15625 136.445312 150.128906 142.210938 144.363281 C 150.910156 135.660156 162.472656 130.871094 174.777344 130.871094 L 199.929688 130.871094 C 212.234375 130.871094 223.800781 135.660156 232.496094 144.363281 C 238.261719 150.128906 242.308594 157.15625 244.386719 164.820312 L 285.839844 164.820312 C 296.363281 164.820312 306.261719 168.921875 313.703125 176.367188 C 321.144531 183.808594 325.242188 193.707031 325.242188 204.238281 L 325.242188 283.914062 C 325.242188 286.410156 323.21875 288.433594 320.722656 288.433594 " fill-opacity="1" fill-rule="nonzero"/></g><g clip-path="url(#ab186bb4c3)"><path fill="#000000" d="M 187.351562 55.230469 C 172.808594 55.230469 160.972656 67.066406 160.972656 81.617188 C 160.972656 96.167969 172.808594 108.003906 187.351562 108.003906 C 201.898438 108.003906 213.730469 96.167969 213.730469 81.617188 C 213.730469 67.066406 201.898438 55.230469 187.351562 55.230469 Z M 187.351562 117.050781 C 177.890625 117.050781 168.996094 113.363281 162.304688 106.671875 C 155.613281 99.976562 151.929688 91.082031 151.929688 81.617188 C 151.929688 72.152344 155.613281 63.253906 162.304688 56.558594 C 168.996094 49.867188 177.890625 46.183594 187.351562 46.183594 C 196.816406 46.183594 205.710938 49.867188 212.402344 56.558594 C 219.089844 63.253906 222.777344 72.152344 222.777344 81.617188 C 222.777344 91.082031 219.089844 99.976562 212.402344 106.671875 C 205.710938 113.363281 196.816406 117.050781 187.351562 117.050781 " fill-opacity="1" fill-rule="nonzero"/></g><path fill="#000000" d="M 265.511719 87.195312 C 250.964844 87.195312 239.132812 99.03125 239.132812 113.582031 C 239.132812 128.128906 250.964844 139.96875 265.511719 139.96875 C 280.054688 139.96875 291.890625 128.128906 291.890625 113.582031 C 291.890625 99.03125 280.054688 87.195312 265.511719 87.195312 Z M 265.511719 149.015625 C 256.050781 149.015625 247.152344 145.328125 240.460938 138.636719 C 233.773438 131.945312 230.085938 123.046875 230.085938 113.582031 C 230.085938 104.117188 233.773438 95.21875 240.460938 88.527344 C 247.152344 81.832031 256.050781 78.148438 265.511719 78.148438 C 274.972656 78.148438 283.867188 81.832031 290.558594 88.527344 C 297.25 95.21875 300.933594 104.117188 300.933594 113.582031 C 300.933594 123.046875 297.25 131.945312 290.558594 138.636719 C 283.867188 145.328125 274.972656 149.015625 265.511719 149.015625 " fill-opacity="1" fill-rule="nonzero"/><path fill="#000000" d="M 109.195312 87.195312 C 94.652344 87.195312 82.816406 99.03125 82.816406 113.582031 C 82.816406 128.128906 94.652344 139.96875 109.195312 139.96875 C 123.742188 139.96875 135.574219 128.128906 135.574219 113.582031 C 135.574219 99.03125 123.742188 87.195312 109.195312 87.195312 Z M 109.195312 149.015625 C 99.734375 149.015625 90.839844 145.328125 84.148438 138.636719 C 77.457031 131.945312 73.773438 123.046875 73.773438 113.582031 C 73.773438 104.117188 77.457031 95.21875 84.148438 88.523438 C 90.839844 81.832031 99.734375 78.148438 109.195312 78.148438 C 118.65625 78.148438 127.554688 81.832031 134.246094 88.523438 C 140.933594 95.21875 144.621094 104.117188 144.621094 113.582031 C 144.621094 123.046875 140.933594 131.945312 134.246094 138.636719 C 127.554688 145.328125 118.65625 149.015625 109.195312 149.015625 " fill-opacity="1" fill-rule="nonzero"/><path fill="#000000" d="M 375 128.300781 L 368.121094 128.300781 L 368.121094 6.878906 L 6.878906 6.878906 L 6.878906 128.300781 L 0 128.300781 L 0 0 L 375 0 L 375 128.300781 " fill-opacity="1" fill-rule="nonzero"/><path fill="#000000" d="M 375 375 L 0 375 L 0 235.9375 L 6.878906 235.9375 L 6.878906 368.121094 L 368.121094 368.121094 L 368.121094 235.9375 L 375 235.9375 L 375 375 " fill-opacity="1" fill-rule="nonzero"/><g fill="#000000" fill-opacity="1"><g transform="translate(45.363283, 336.981979)"><g><path d="M 29.53125 0 L 29.53125 -27.421875 L 20.375 -9.015625 L 17.625 -9.015625 L 8.5625 -27.421875 L 8.5625 0 L 4.359375 0 L 4.359375 -33.09375 L 10.328125 -33.09375 L 19.109375 -15.09375 L 27.953125 -33.09375 L 33.734375 -33.09375 L 33.734375 0 Z M 29.53125 0 "/></g></g></g><g fill="#000000" fill-opacity="1"><g transform="translate(83.455787, 336.981979)"><g/></g></g><g fill="#000000" fill-opacity="1"><g transform="translate(96.679365, 336.981979)"><g><path d="M 4.359375 0 L 4.359375 -33.09375 L 24.578125 -33.09375 L 24.578125 -29.09375 L 8.78125 -29.09375 L 8.78125 -19.4375 L 22.28125 -19.4375 L 22.28125 -15.421875 L 8.78125 -15.421875 L 8.78125 -4.015625 L 24.578125 -4.015625 L 24.578125 0 Z M 4.359375 0 "/></g></g></g><g fill="#000000" fill-opacity="1"><g transform="translate(124.250401, 336.981979)"><g/></g></g><g fill="#000000" fill-opacity="1"><g transform="translate(137.473979, 336.981979)"><g><path d="M 28.078125 -16.546875 C 28.078125 -12.492188 27.550781 -9.269531 26.5 -6.875 C 25.457031 -4.488281 23.847656 -2.742188 21.671875 -1.640625 C 19.492188 -0.546875 16.429688 0 12.484375 0 L 4.0625 0 L 4.0625 -33.09375 L 12.390625 -33.09375 C 16.242188 -33.09375 19.285156 -32.535156 21.515625 -31.421875 C 23.742188 -30.316406 25.394531 -28.5625 26.46875 -26.15625 C 27.539062 -23.75 28.078125 -20.546875 28.078125 -16.546875 Z M 23.40625 -16.59375 C 23.40625 -19.75 23.050781 -22.21875 22.34375 -24 C 21.644531 -25.789062 20.488281 -27.085938 18.875 -27.890625 C 17.269531 -28.691406 15.023438 -29.09375 12.140625 -29.09375 L 8.46875 -29.09375 L 8.46875 -4.015625 L 12.140625 -4.015625 C 15.046875 -4.015625 17.289062 -4.414062 18.875 -5.21875 C 20.457031 -6.03125 21.609375 -7.320312 22.328125 -9.09375 C 23.046875 -10.875 23.40625 -13.375 23.40625 -16.59375 Z M 23.40625 -16.59375 "/></g></g></g><g fill="#000000" fill-opacity="1"><g transform="translate(168.368837, 336.981979)"><g/></g></g><g fill="#000000" fill-opacity="1"><g transform="translate(181.592415, 336.981979)"><g><path d="M 15.96875 0 L 2.4375 0 L 2.4375 -3.828125 L 7 -3.828125 L 7 -29.34375 L 2.4375 -29.34375 L 2.4375 -33.09375 L 15.96875 -33.09375 L 15.96875 -29.34375 L 11.40625 -29.34375 L 11.40625 -3.828125 L 15.96875 -3.828125 Z M 15.96875 0 "/></g></g></g><g fill="#000000" fill-opacity="1"><g transform="translate(200.004985, 336.981979)"><g/></g></g><g fill="#000000" fill-opacity="1"><g transform="translate(213.228563, 336.981979)"><g><path d="M 1.21875 0 L 12.53125 -33.09375 L 18.265625 -33.09375 L 29.578125 0 L 24.921875 0 L 22.046875 -8.609375 L 8.5625 -8.609375 L 5.734375 0 Z M 9.90625 -12.625 L 20.65625 -12.625 L 15.28125 -28.734375 Z M 9.90625 -12.625 "/></g></g></g><g fill="#000000" fill-opacity="1"><g transform="translate(244.02776, 336.981979)"><g/></g></g><g fill="#000000" fill-opacity="1"><g transform="translate(257.251338, 336.981979)"><g><path d="M 29.71875 -5.78125 C 28.664062 -4.09375 27.59375 -2.8125 26.5 -1.9375 C 25.40625 -1.070312 24.132812 -0.421875 22.6875 0.015625 C 21.238281 0.460938 19.535156 0.6875 17.578125 0.6875 C 12.617188 0.6875 8.960938 -0.738281 6.609375 -3.59375 C 4.253906 -6.457031 3.078125 -10.773438 3.078125 -16.546875 C 3.078125 -22.296875 4.242188 -26.601562 6.578125 -29.46875 C 8.921875 -32.34375 12.523438 -33.78125 17.390625 -33.78125 C 19.316406 -33.78125 21.035156 -33.539062 22.546875 -33.0625 C 24.054688 -32.582031 25.332031 -31.925781 26.375 -31.09375 C 27.425781 -30.257812 28.382812 -29.082031 29.25 -27.5625 L 25.609375 -25.171875 C 24.910156 -26.359375 24.203125 -27.253906 23.484375 -27.859375 C 22.765625 -28.472656 21.898438 -28.957031 20.890625 -29.3125 C 19.890625 -29.675781 18.722656 -29.859375 17.390625 -29.859375 C 14.066406 -29.859375 11.628906 -28.753906 10.078125 -26.546875 C 8.523438 -24.335938 7.75 -21.003906 7.75 -16.546875 C 7.75 -12.148438 8.515625 -8.832031 10.046875 -6.59375 C 11.578125 -4.351562 14.039062 -3.234375 17.4375 -3.234375 C 19.3125 -3.234375 20.941406 -3.601562 22.328125 -4.34375 C 23.710938 -5.082031 24.957031 -6.359375 26.0625 -8.171875 Z M 29.71875 -5.78125 "/></g></g></g><g fill="#000000" fill-opacity="1"><g transform="translate(288.839662, 336.981979)"><g/></g></g><g fill="#000000" fill-opacity="1"><g transform="translate(302.06324, 336.981979)"><g><path d="M 4.359375 0 L 4.359375 -33.09375 L 24.578125 -33.09375 L 24.578125 -29.09375 L 8.78125 -29.09375 L 8.78125 -19.4375 L 22.28125 -19.4375 L 22.28125 -15.421875 L 8.78125 -15.421875 L 8.78125 -4.015625 L 24.578125 -4.015625 L 24.578125 0 Z M 4.359375 0 "/></g></g></g></svg>